<svg width="187" height="38" viewBox="0 0 187 38" fill="none" xmlns="http://www.w3.org/2000/svg">
<path d="M38.8555 0.321091H43.193V37.6781H38.8555V0.321091ZM46.476 24.0716C46.476 15.8012 51.6602 10.1433 59.2807 10.1433C66.9011 10.1433 71.8723 14.9989 72.0853 23.0583C72.0853 23.6441 72.0334 24.288 71.9814 24.9266H51.0264V25.3014C51.1875 30.479 54.4133 34.1049 59.5456 34.1049C63.3584 34.1049 66.3193 32.0782 67.218 28.5526H71.6126C70.5529 33.9941 66.1115 38 59.8676 38C51.7693 38 46.4812 32.3949 46.4812 24.0716H46.476ZM67.431 21.2955C67.005 16.5981 63.8311 13.9856 59.3326 13.9856C55.3639 13.9856 51.7121 16.8673 51.2914 21.2955H67.431ZM97.4868 0.321091H101.824V37.6781H98.0686L97.4868 33.3027C95.6895 35.8097 92.7754 38 88.2249 38C80.7655 38 75.2592 32.9279 75.2592 24.0716C75.2592 15.7484 80.7603 10.1433 88.2249 10.1433C92.7754 10.1433 95.8454 12.0116 97.4868 14.6242V0.321091ZM97.544 24.1772C97.544 18.1973 93.9441 14.0383 88.656 14.0383C83.368 14.0383 79.711 18.1498 79.711 24.0716C79.711 29.9934 83.3108 34.1049 88.656 34.1049C94.0013 34.1049 97.544 29.9934 97.544 24.1772ZM128.26 19.9601V37.6781H124.504L124.135 33.4082C122.442 35.8625 119.746 38 115.086 38C109.159 38 105.138 35.0127 105.138 30.0462C105.138 24.6047 108.894 21.5593 115.985 21.5593H123.922V19.691C123.922 16.1706 121.434 14.0331 117.2 14.0331C113.393 14.0331 110.853 15.8487 110.323 18.6196H105.985C106.619 13.2836 110.904 10.1327 117.413 10.1327C124.291 10.1327 128.26 13.6003 128.26 19.9549V19.9601ZM123.922 25.2433H115.559C111.694 25.2433 109.528 26.6842 109.528 29.7823C109.528 32.4529 111.803 34.2632 115.403 34.2632C120.8 34.2632 123.922 31.1123 123.922 26.5786V25.2433ZM153.77 0.321091H158.108V37.6781H154.352L153.77 33.3027C151.973 35.8097 149.059 38 144.508 38C137.049 38 131.543 32.9279 131.543 24.0716C131.543 15.7484 137.044 10.1433 144.508 10.1433C149.059 10.1433 152.134 12.0116 153.77 14.6242V0.321091ZM153.822 24.1772C153.822 18.1973 150.222 14.0383 144.929 14.0383C139.636 14.0383 135.984 18.1498 135.984 24.0716C135.984 29.9934 139.584 34.1049 144.929 34.1049C150.274 34.1049 153.822 29.9934 153.822 24.1772ZM161.391 24.0716C161.391 15.8012 166.575 10.1433 174.195 10.1433C181.816 10.1433 186.787 14.9989 187 23.0583C187 23.6441 186.948 24.288 186.896 24.9266H165.941V25.3014C166.102 30.479 169.328 34.1049 174.46 34.1049C178.273 34.1049 181.234 32.0782 182.133 28.5526H186.527C185.468 33.9941 181.026 38 174.782 38C166.684 38 161.396 32.3949 161.396 24.0716H161.391ZM182.346 21.2955C181.92 16.5981 178.746 13.9856 174.247 13.9856C170.279 13.9856 166.627 16.8673 166.206 21.2955H182.346ZM32.3623 0.278868C30.9182 -0.285867 29.2248 -0.0061386 28.2586 1.23945L11.0489 23.4277H0V27.0589H8.23342L0 37.6781H5.58418L13.9423 27.0589H29.7079V37.6781H34.3362V5.24009C34.3362 3.42449 34.6219 1.155 32.3675 0.278868H32.3623ZM16.3526 23.4277L29.7079 6.45401V23.4277H16.3526Z" fill="#003DA5"/>
</svg>
