<svg width="240" height="34" viewBox="0 0 240 34" fill="none" xmlns="http://www.w3.org/2000/svg">
<path fill-rule="evenodd" clip-rule="evenodd" d="M16.0277 25.4442C16.3107 25.4726 16.5963 25.4857 16.8871 25.4857C17.1766 25.4857 17.4609 25.4726 17.7417 25.4442L18.6154 33.9104C18.0468 33.9694 17.4709 34 16.8871 34C16.3099 34 15.7391 33.9694 15.1758 33.9126L16.0277 25.4442ZM13.7754 25.0026C13.505 24.8911 13.2445 24.7688 12.9929 24.6355L9.05273 32.1689C9.55317 32.4332 10.0718 32.6757 10.6079 32.892C11.1482 33.1149 11.6938 33.3028 12.2433 33.4623L14.5835 25.2822C14.3123 25.2058 14.0423 25.1096 13.7754 25.0026ZM10.4303 22.5687C10.6139 22.7873 10.8105 22.9992 11.0189 23.2002C11.2267 23.4033 11.442 23.5934 11.6643 23.7682L6.44942 30.4713C6.00108 30.113 5.56618 29.7307 5.14605 29.3243C4.73069 28.9201 4.34006 28.5006 3.97461 28.0658L10.4303 22.5687ZM9.19767 20.5327C9.08439 20.2617 8.98587 19.9909 8.9021 19.7177L0.826172 22.239C0.993271 22.7809 1.18988 23.3228 1.41515 23.858C1.64344 24.3977 1.89605 24.9221 2.17166 25.4268L9.5718 21.3083C9.43508 21.0592 9.31052 20.7992 9.19767 20.5327ZM8.49694 16.2286C8.46785 16.5147 8.45484 16.8032 8.45484 17.0937C8.45484 17.3865 8.46785 17.6727 8.49694 17.9568L0.0868053 18.8356C0.0295138 18.2631 0 17.6824 0 17.0937C0 16.5126 0.0282117 15.9402 0.0855032 15.3729L8.49694 16.2286ZM9.05618 13.8671C9.16469 13.5966 9.28621 13.3339 9.41772 13.0813L1.93685 9.11543C1.67469 9.61748 1.4325 10.1401 1.21679 10.679C0.998481 11.2238 0.809679 11.7743 0.650391 12.3258L8.77494 14.682C8.85436 14.4097 8.94767 14.1371 9.05618 13.8671ZM11.4722 10.5005C11.2565 10.6853 11.046 10.8815 10.845 11.0926C10.6441 11.3015 10.4566 11.5181 10.2808 11.7411L3.625 6.49266C3.97743 6.04084 4.35763 5.60211 4.76302 5.17904C5.1645 4.76089 5.58116 4.36769 6.01301 4.00011L11.4722 10.5005ZM13.4965 9.25922C13.7634 9.14433 14.0338 9.04422 14.3051 8.96077L11.8007 0.830048C11.2617 0.999634 10.7244 1.19629 10.1927 1.42393C9.65582 1.65337 9.13585 1.90718 8.63672 2.18561L12.7253 9.63586C12.9735 9.49872 13.2309 9.37153 13.4965 9.25922ZM16.9104 8.51205C17.1999 8.51205 17.4872 8.52648 17.7706 8.55579L18.6213 0.0864563C18.0584 0.0291824 17.4872 -1.52588e-05 16.9104 -1.52588e-05C16.3266 -1.52588e-05 15.7502 0.0296288 15.1816 0.0882454L16.0549 8.55445C16.3362 8.52648 16.6213 8.51205 16.9104 8.51205ZM20.2969 24.7407C20.0295 24.8543 19.7596 24.9548 19.4883 25.0378L21.9914 33.1698C22.5322 32.9994 23.069 32.8027 23.6007 32.5755C24.138 32.3461 24.6576 32.0905 25.158 31.8152L21.0682 24.3649C20.8199 24.5025 20.5625 24.6271 20.2969 24.7407ZM22.3203 23.5C22.5365 23.3164 22.7465 23.1176 22.9475 22.9079C23.1493 22.6982 23.3373 22.4797 23.5118 22.259L30.1675 27.507C29.8152 27.9592 29.4354 28.3962 29.0304 28.8201C28.629 29.2374 28.211 29.6306 27.7791 29.9999L22.3203 23.5ZM24.739 20.133C24.6308 20.4017 24.5088 20.6661 24.377 20.9174L31.8574 24.885C32.1195 24.3803 32.3617 23.8581 32.5774 23.3185C32.7966 22.7744 32.9854 22.226 33.1438 21.6755L25.0202 19.318C24.9412 19.5911 24.8465 19.8643 24.739 20.133ZM25.3203 17.8897C25.3485 17.6049 25.3624 17.3152 25.3624 17.0237C25.3624 16.7331 25.3485 16.4469 25.3203 16.1629L33.7304 15.2824C33.7882 15.8548 33.8181 16.4359 33.8181 17.0237C33.8181 17.6049 33.7882 18.1799 33.7317 18.7479L25.3203 17.8897ZM24.6205 13.5862C24.7342 13.8563 24.8345 14.1272 24.9178 14.4016L32.9929 11.8803C32.8258 11.3359 32.6291 10.797 32.4039 10.2618C32.1756 9.71988 31.923 9.19726 31.6474 8.69308L24.248 12.811C24.3839 13.0601 24.5076 13.3183 24.6205 13.5862ZM23.3877 11.5504C23.2046 11.3324 23.0093 11.1205 22.7996 10.9173C22.5913 10.7162 22.3765 10.5262 22.1543 10.3488L27.3677 3.6488C27.8169 4.00486 28.2523 4.38676 28.6725 4.79495C29.0892 5.19744 29.4785 5.61727 29.8443 6.05342L23.3877 11.5504ZM20.045 9.11606C20.3141 9.22568 20.5732 9.34717 20.8262 9.47961L24.7663 1.94972C24.2659 1.68404 23.7472 1.44286 23.2121 1.22484C22.6708 1.00414 22.1248 0.815422 21.5762 0.654114L19.2363 8.83416C19.5068 8.91325 19.7771 9.00677 20.045 9.11606ZM107.441 31.8921H115.174V9.06709H126.214V2.97264H96.3711V9.06709H107.441V31.8921ZM176.548 7.51299C169.602 7.58772 167.68 12.1868 167.68 17.4055C167.68 22.0924 169.825 26.2567 176.548 26.2567C183.493 26.2567 185.634 22.0924 186.005 17.2569C186.405 12.0531 183.57 7.43827 176.548 7.51299ZM176.628 32.2891C165.354 32.2934 158.723 25.4003 158.723 16.7959C158.723 7.94378 165.347 1.71049 176.621 1.71049C187.895 1.71049 194.536 7.94378 194.536 16.7959C194.536 25.4003 187.778 32.2825 176.628 32.2891ZM196.859 31.5552H204.624V13.0845H204.726L219.613 31.5552H228.563V2.59512L220.714 2.63572V21.4481H220.612L205.705 2.63572H196.859V31.5552ZM62.1299 31.5771H37.791V2.59524H45.5505V25.4203H62.1299V31.5771ZM94.1182 2.5949H86.386V20.3031C86.386 24.7295 83.8977 26.4839 78.1837 26.4839C72.5922 26.4839 70.0154 24.7557 70.0241 20.3031V2.5949H62.3105V20.3031C62.3105 28.4044 68.3886 32.2891 78.1837 32.2891C87.9277 32.2891 94.1182 28.3629 94.1182 20.3031V2.5949ZM144.103 8.53784H134.481V15.3349H144.103C147.678 15.3349 150.162 14.9372 150.162 11.9305C150.162 9.0513 147.678 8.53784 144.103 8.53784ZM134.583 31.5556H127.404V2.59552H147.046C154.576 2.12356 157.8 5.30956 157.916 9.96936C158.005 13.4743 155.64 16.3661 151.91 17.5546L151.944 17.6605C154.902 17.7784 155.981 18.0921 156.97 24.4723C157.009 24.7245 157.05 25.0068 157.093 25.3094L157.093 25.3098C157.434 27.671 157.953 31.2733 159.272 31.5556H159.613C159.494 31.5795 159.38 31.5787 159.272 31.5556H153.524C151.36 31.6886 150.869 28.6266 150.26 24.8289L150.258 24.811C149.768 21.7282 149.219 20.2446 146.2 20.2905H134.583V31.5556ZM236.791 25.6693C237.083 25.7335 237.365 25.93 237.304 26.4906C237.245 27.0608 236.876 27.1657 236.495 27.1657H235.086V25.6411H236.497C236.587 25.6411 236.689 25.6473 236.791 25.6693ZM236.772 27.6894C236.703 27.6744 236.624 27.6664 236.534 27.6664H235.086V29.5651H234.52V29.5646H234.518V25.1403H236.484C236.682 25.1403 236.877 25.151 237.057 25.1905C237.499 25.287 237.847 25.557 237.888 26.2703C237.91 26.8406 237.736 27.0503 237.306 27.3758C237.757 27.6664 237.771 27.7363 237.841 28.5054C237.854 28.6639 237.857 28.7863 237.859 28.8882C237.866 29.1611 237.87 29.2866 238.048 29.5651H237.378L237.378 29.5646H237.376L237.283 29.0075C237.262 28.8869 237.259 28.7508 237.255 28.6128C237.246 28.2105 237.237 27.7914 236.772 27.6894ZM239.54 27.4694C239.54 29.4379 237.953 31.0219 236.009 31.0219C234.055 31.0329 232.48 29.4379 232.48 27.4803C232.47 25.5139 234.055 23.9168 236 23.9168C237.953 23.9168 239.54 25.5139 239.54 27.4694ZM240 27.4694C240 25.2561 238.208 23.4514 236.009 23.4514C233.802 23.4514 232.008 25.2561 232.018 27.4694C232.018 29.6935 233.802 31.4873 236.009 31.4873C238.208 31.4742 240 29.6935 240 27.4694Z" fill="#274189"/>
</svg>
