<svg width="187" height="78" viewBox="0 0 187 78" fill="none" xmlns="http://www.w3.org/2000/svg">
<path d="M184.287 59.4383C183.002 59.8797 181.518 61.0935 180.764 61.6673C177.973 63.8301 174.849 65.5736 171.526 66.7654C169.51 67.4937 167.183 68.0234 165.234 67.0744C158.1 63.5874 160.205 41.7164 167.383 38.8695C168.225 38.5384 169.155 38.5605 170.041 38.5826C174.76 38.6929 182.559 40.5688 186.015 37.0818C186.946 36.1328 187.278 34.7425 186.746 33.5286C185.971 31.7851 184.043 31.6527 182.36 31.6086C179.103 31.5424 175.824 31.4541 172.567 31.3879C177.087 25.7381 179.546 18.4772 179.369 11.2384C179.324 8.72246 178.926 6.16239 177.685 3.99957C176.444 1.83676 174.184 0.0932612 171.659 0.00498299C167.804 -0.149504 164.857 3.31542 162.841 6.60378C158.41 13.8647 155.419 21.9863 154.09 30.3727C151.01 30.4168 147.953 30.461 144.873 30.5051C142.901 30.5272 140.154 31.4541 140.664 33.3962C140.841 34.0142 141.306 34.5438 141.882 34.8087C144.408 36.0225 147.222 36.6846 150.035 36.7067C150.899 36.7067 151.896 36.7508 152.384 37.457C152.694 37.8984 152.672 38.4943 152.628 39.024C152.406 42.2682 152.184 45.4903 151.985 48.7346C151.763 52.1553 151.52 55.6423 150.323 58.8645C148.883 62.7267 145.915 65.684 142.06 67.1626C141.484 67.3833 140.885 67.5599 140.287 67.4716C138.714 67.2068 138.116 65.3088 137.983 63.7419C137.385 57.2534 139.135 50.8312 140.154 44.3869C140.464 42.4006 140.708 40.3481 140.132 38.4281C138.825 34.1024 133.973 33.5728 130.805 36.2873C128.922 37.8763 127.792 40.1495 126.706 42.3565C124.956 45.9317 123.184 49.5291 121.433 53.1043C121.212 53.5678 120.68 54.0754 120.303 53.7444C120.99 49.3084 121.544 44.8503 121.921 40.3923C122.054 38.8695 122.12 37.2142 121.19 36.0004C119.661 34.0583 116.116 34.3893 114.366 35.8239C112.394 37.457 111.929 40.7012 111.552 43.0406C110.732 48.0945 109.891 53.1705 109.381 58.2686C109.248 59.6149 108.317 60.7625 107.032 61.1818C104.928 61.8659 102.601 61.2921 101.117 59.659C98.2148 56.4589 100.009 51.6257 101.516 48.227C102.934 45.0048 106.523 37.9425 104.507 35.3604C104.019 34.7204 103.155 34.4776 102.358 34.3673C100.563 34.1024 98.3256 33.9038 96.7526 35.0294C94.8916 36.3315 94.2712 39.1564 93.4515 41.1206C92.2773 43.9234 91.1252 46.7262 89.951 49.5291C87.669 55.0023 85.7194 60.7845 83.0386 66.0812C83.4153 65.1984 83.1051 63.477 83.1272 62.506C83.2159 58.2245 83.3266 53.965 83.4153 49.6835C83.4817 46.0641 84.6559 40.635 83.6811 37.1701C82.4848 32.9328 75.2179 33.3962 73.3347 37.0598C72.6701 38.3619 72.7144 42.6875 72.7144 45.4021C72.7144 48.558 72.803 51.6919 72.9359 54.8478C73.0467 57.5403 71.3629 60.0121 68.7708 60.8507C68.7486 60.8507 68.7486 60.8507 68.7265 60.8728C66.4002 61.6011 63.5422 61.4466 61.9027 59.6148C59.0226 56.4148 59.7094 51.6036 61.2159 48.2049C62.5009 45.3138 64.65 40.5247 66.0014 37.5674C66.5996 36.2432 65.7577 34.7204 64.3398 34.5218C63.4093 34.3894 62.5452 34.2569 62.3237 34.2349C60.7064 34.1245 58.9561 34.0142 57.5603 35.0073C55.6993 36.3094 55.079 39.1343 54.2592 41.0985C53.085 43.9013 51.933 46.7042 50.7588 49.507C48.4768 54.9802 46.5271 60.7625 43.8464 66.0592C44.223 65.1764 43.9129 63.4549 43.935 62.4839C44.1344 54.0754 44.4446 45.6669 44.4446 37.2363C44.4224 36.5742 44.3781 35.8459 43.9793 35.3163C42.7165 33.6831 38.928 34.7866 37.2442 35.0294C32.3922 35.7356 33.4778 41.6502 33.5221 45.2476C33.5665 48.8891 33.6329 52.5305 33.788 56.172C33.788 56.2161 33.788 56.2603 33.788 56.3044C34.1868 66.1033 20.7166 70.9365 15.1556 68.9282C12.8515 68.0896 12.0983 65.993 11.4336 63.6536C16.6622 62.3294 21.492 59.4162 25.0811 55.3775C28.493 51.5595 30.8414 46.1083 29.0468 41.3192C27.2966 36.5963 21.78 33.9259 16.773 34.5659C5.49605 36.0225 -0.109165 49.838 0.00161014 59.8355C0.0680752 66.3461 1.53031 74.0042 8.50914 76.4318C11.8324 77.5795 15.5101 77.3367 18.8998 76.3436C23.7961 74.9091 28.1606 72.3931 31.8605 68.9282C32.4587 68.3544 34.8071 65.8826 34.6964 65.2205C35.3832 69.4137 35.0508 78.2416 41.5423 77.5795C44.9985 77.2264 48.1223 74.1587 49.5624 71.2896C51.7336 66.8978 52.5312 64.3598 55.1676 61.0052C55.7436 60.2769 56.2532 61.0273 56.4526 61.4908C58.3579 65.5736 61.7033 66.1033 65.8685 65.066C68.3941 64.4481 70.8755 63.6315 73.2683 62.6384C72.9802 62.7487 74.2874 71.2676 74.5311 72.0621C75.373 74.8649 77.0789 77.6015 80.3579 77.6898C87.1816 77.8664 92.1222 66.3019 94.2712 61.2921C94.3598 61.0714 94.5592 60.8728 94.8029 60.8287C95.2903 60.7183 95.5119 61.1376 95.6891 61.4908C96.3981 63.0136 97.2178 64.3157 98.7908 65.0881C101.028 66.1695 103.82 65.375 106.102 64.8012C106.744 64.6467 107.387 64.4701 108.007 64.2715C108.318 64.1832 108.539 64.4481 108.517 64.7571C107.963 72.1062 110.467 83.0748 117.911 75.3725C119.284 73.9601 120.06 72.1062 120.857 70.3186C123.693 63.8963 126.972 57.6507 130.65 51.6477C130.34 57.7389 129.542 66.4343 130.517 71.2014C130.982 73.4304 131.824 75.9022 133.907 76.8512C135.679 77.6457 137.762 77.0719 139.578 76.4098C145.073 74.4235 150.257 72.5476 154.245 67.6923C154.91 72.68 161.401 77.0057 166.452 76.8512C171.481 76.6967 176.09 74.0042 180.188 71.091C183.689 68.5972 187.411 64.9998 186.702 60.7404C186.325 59.2617 185.373 59.0631 184.287 59.4383ZM164.037 23.4428C164.658 20.9931 165.322 18.742 166.031 16.7116C166.74 14.6812 167.471 13.004 168.247 11.6798C169.022 10.3777 169.776 9.71559 170.529 9.71559C171.083 9.71559 171.504 9.82594 171.814 10.0687C172.124 10.2894 172.345 10.5763 172.478 10.9294C172.634 11.2825 172.722 11.6356 172.766 12.0329C172.811 12.4301 172.833 12.7612 172.833 13.0922C172.833 13.9971 172.589 15.1668 172.102 16.5792C171.614 17.9917 170.994 19.5145 170.241 21.1476C169.487 22.7808 168.646 24.436 167.693 26.1353C167.006 27.3712 166.319 28.563 165.677 29.6665C165.256 30.3727 164.48 30.792 163.661 30.7258H163.639H163.616C162.93 30.6817 162.464 30.0196 162.619 29.3575C163.04 27.4374 163.528 25.4732 164.037 23.4428ZM10.3037 56.7679C10.0821 54.2961 10.8354 51.8243 11.7216 49.507C12.5414 47.3 14.1365 44.7841 16.1526 43.482C18.7004 41.8268 21.9794 43.6365 22.3339 46.66C22.4003 47.2338 22.3339 47.8076 22.1788 48.3594C21.4034 51.096 19.786 53.7885 17.5705 55.6423C16.5514 56.481 15.3329 57.2093 14.0257 57.4741C13.4719 57.5845 10.3923 57.7169 10.3037 56.7679Z" fill="white"/>
</svg>
