<svg width="56" height="56" viewBox="0 0 56 56" fill="none" xmlns="http://www.w3.org/2000/svg">
<path fill-rule="evenodd" clip-rule="evenodd" d="M53.6666 28C53.6666 42.1754 42.1752 53.6667 27.9999 53.6667C13.8246 53.6667 2.33325 42.1754 2.33325 28C2.33325 13.8247 13.8246 2.33337 27.9999 2.33337C42.1752 2.33337 53.6666 13.8247 53.6666 28ZM18.1758 19H37.8242C39.5756 19 41.0003 20.4529 41 22.239V33.7614C41 35.5471 39.5752 37 37.8242 37H18.1758C16.4248 37 15 35.5471 15 33.7614V22.2386C15 20.4529 16.4248 19 18.1758 19ZM28 26.5478L36.2723 21.1128H19.7277L28 26.5478ZM17.0719 33.7617C17.0719 34.3822 17.5671 34.8875 18.1758 34.8875H37.8242C38.4329 34.8875 38.9285 34.3822 38.9288 33.7614V22.2988L28.6399 29.0459C28.6319 29.0509 28.6236 29.0551 28.6153 29.0592C28.6092 29.0623 28.6031 29.0653 28.597 29.0687C28.5822 29.0772 28.567 29.0853 28.5518 29.093C28.4717 29.1349 28.3899 29.1688 28.3059 29.1909C28.3014 29.1922 28.2968 29.1932 28.2922 29.194C28.2882 29.1948 28.2841 29.1956 28.28 29.1966C28.1879 29.2191 28.0946 29.2325 28.0014 29.2325H28H27.9993C27.9061 29.2325 27.8128 29.2188 27.7206 29.1966C27.712 29.1945 27.7034 29.1934 27.6947 29.1909C27.6108 29.1688 27.5286 29.1349 27.4489 29.093C27.4337 29.0853 27.4185 29.0772 27.4036 29.0687C27.3895 29.0606 27.3746 29.0547 27.3608 29.0459L17.0719 22.2988V33.7617Z" fill="#1F222E"/>
</svg>
