<svg width="14" height="14" viewBox="0 0 14 14" fill="none" xmlns="http://www.w3.org/2000/svg">
<path d="M12.2618 0.932861L4.79476 0.932861C4.25852 0.932667 3.82332 1.36789 3.82332 1.90435C3.82332 2.441 4.25814 2.87583 4.79476 2.87583L9.91634 2.87603L1.05085 11.742C0.671411 12.1215 0.671411 12.7364 1.05085 13.1159C1.4301 13.4951 2.04521 13.4951 2.42446 13.1159L11.2903 4.24971L11.2903 9.37158C11.2903 9.90823 11.7253 10.3433 12.262 10.3433C12.5301 10.3433 12.7731 10.2345 12.9488 10.0586C13.1246 9.88297 13.2334 9.6399 13.2334 9.37177L13.2332 1.90415C13.2334 1.3677 12.7984 0.932667 12.2618 0.932861Z" fill="#3D33AB"/>
</svg>
