<svg width="56" height="56" viewBox="0 0 56 56" fill="none" xmlns="http://www.w3.org/2000/svg">
<path fill-rule="evenodd" clip-rule="evenodd" d="M53.6666 28C53.6666 42.1754 42.1752 53.6667 27.9999 53.6667C13.8246 53.6667 2.33325 42.1754 2.33325 28C2.33325 13.8247 13.8246 2.33337 27.9999 2.33337C42.1752 2.33337 53.6666 13.8247 53.6666 28ZM19.5521 17H37.4479C38.3043 17 39 17.6721 39 18.5039V36.4961C39 37.3252 38.3043 38 37.4479 38H19.5521C18.6957 38 18 37.3279 18 36.4961V18.5039C18 17.6748 18.6957 17 19.5521 17ZM21.1956 25.0981V34.5817H24.3662V25.0981H21.1956ZM22.7615 23.8035H22.7809H22.7837C23.8895 23.8035 24.5769 23.0736 24.5769 22.1646C24.5547 21.2336 23.8868 20.5257 22.8031 20.5257C21.7194 20.5257 21.0099 21.2529 21.0099 22.1646C21.0099 23.0763 21.6972 23.8035 22.7615 23.8035ZM32.6338 34.5817H35.8044V29.1472C35.8044 26.2329 34.2385 24.8778 32.1515 24.8778C30.4692 24.8778 29.7153 25.795 29.294 26.4423V25.0981H26.1234C26.165 25.9878 26.1234 34.5817 26.1234 34.5817H29.294V29.2849C29.294 29.0012 29.3162 28.7202 29.3994 28.5164C29.6294 27.949 30.1505 27.3623 31.0263 27.3623C32.1737 27.3623 32.6338 28.2327 32.6338 29.508V34.5817Z" fill="#1F222E"/>
</svg>
