<svg width="56" height="56" viewBox="0 0 56 56" fill="none" xmlns="http://www.w3.org/2000/svg">
<path fill-rule="evenodd" clip-rule="evenodd" d="M27.9999 53.6667C42.1752 53.6667 53.6666 42.1754 53.6666 28C53.6666 13.8247 42.1752 2.33337 27.9999 2.33337C13.8246 2.33337 2.33325 13.8247 2.33325 28C2.33325 42.1754 13.8246 53.6667 27.9999 53.6667ZM38.7828 32.2374C38.1922 31.9723 35.2891 30.6907 34.7473 30.5132C34.2054 30.3357 33.8125 30.2481 33.4197 30.7782C33.0268 31.3096 31.8943 32.5036 31.5502 32.8563C31.2061 33.2101 30.8607 33.2539 30.2714 32.9888C29.6808 32.7237 27.7783 32.164 25.5226 30.3581C23.7679 28.9523 22.5826 27.2174 22.2372 26.6861C21.8931 26.1547 22.2003 25.8684 22.4956 25.6045C22.7606 25.3666 23.0863 24.9856 23.3816 24.6755C23.6769 24.3666 23.7744 24.1442 23.9722 23.7915C24.17 23.4377 24.0711 23.1288 23.9234 22.8625C23.7758 22.5975 22.5958 19.9881 22.1027 18.9278C21.6229 17.8947 21.1364 18.0343 20.7751 18.0178C20.4311 18.0024 20.0369 18 19.6427 18C19.2485 18 18.6091 18.1325 18.0672 18.6627C17.5254 19.194 16 20.4756 16 23.0838C16 25.692 18.116 28.2127 18.4113 28.5677C18.7066 28.9215 22.576 34.2752 28.4982 36.5709C29.9062 37.1177 31.007 37.4431 31.8653 37.6881C33.2799 38.0916 34.5666 38.0348 35.5844 37.8987C36.7182 37.746 39.0781 36.6159 39.5699 35.3781C40.0616 34.1403 40.0616 33.0788 39.914 32.8575C39.7663 32.6362 39.3734 32.5024 38.7828 32.2374Z" fill="#1F222E"/>
</svg>
